#N canvas 1 370 450 300 10;
#X obj 23 17 notein;
#X obj 23 79 pack 0 0 0;
#N canvas 265 403 555 722 transfer_functions 0;
#X obj 109 15 inlet;
#X obj 25 44 loadbang;
#X obj 109 37 route 0 1 2 3;
#X obj 360 214 array define tfunc;
#X msg 84 82 sinesum 259 1;
#X msg 84 119 sinesum 259 1 0.5 0.33 0.25 \, normalize 1;
#X msg 79 218 sinesum 259 1 0 0.5 0 \, normalize 1;
#X msg 83 170 sinesum 259 1 0 -0.1 0 \, normalize 1, f 23;
#X connect 0 0 2 0;
#X connect 1 0 4 0;
#X connect 2 0 4 0;
#X connect 2 1 5 0;
#X connect 2 2 7 0;
#X connect 2 3 6 0;
#X connect 4 0 3 0;
#X connect 5 0 3 0;
#X connect 6 0 3 0;
#X connect 7 0 3 0;
#X restore 132 136 pd transfer_functions;
#X obj 216 236 dac~;
#X obj 23 48 poly 4 1;
#X obj 23 244 s~ out;
#X obj 216 190 r~ out;
#X obj 23 110 route 1 2 3 4;
#X obj 216 213 *~ 0.1;
#X obj 136 39 hsl 128 15 0 50 0 0 depth empty empty -2 -8 0 10 -262144
-1 -1 12700 1;
#X obj 132 105 hradio 15 1 0 4 empty empty empty 0 -8 0 10 -262144
-1 -1 3;
#X obj 23 142 wsvoice;
#X obj 40 164 wsvoice;
#X obj 59 188 wsvoice;
#X obj 75 212 wsvoice;
#X obj 132 73 r wsfunc @hv_param 0 4 1;
#X obj 133 17 r wsdepth @hv_param 0 50 5;
#X connect 0 0 4 0;
#X connect 0 1 4 1;
#X connect 1 0 7 0;
#X connect 4 0 1 0;
#X connect 4 1 1 1;
#X connect 4 2 1 2;
#X connect 6 0 8 0;
#X connect 7 0 11 0;
#X connect 7 1 12 0;
#X connect 7 2 13 0;
#X connect 7 3 14 0;
#X connect 8 0 3 0;
#X connect 8 0 3 1;
#X connect 10 0 2 0;
#X connect 11 0 5 0;
#X connect 12 0 5 0;
#X connect 13 0 5 0;
#X connect 14 0 5 0;
#X connect 15 0 10 0;
#X connect 16 0 9 0;
