#N canvas 880 470 452 361 10;
#X obj 85 82 mtof;
#X floatatom 85 108 4 0 0 0 - - -, f 4;
#X obj 85 137 osc~;
#X obj 85 170 *~;
#X obj 85 203 *~ 128;
#X obj 85 229 +~ 128;
#X obj 166 113 line~;
#X obj 85 256 tabread4~ tfunc;
#X obj 85 278 hip~ 10;
#X obj 85 29 unpack 0 0;
#X obj 166 135 *~;
#X obj 166 157 *~;
#X obj 165 61 sel 0;
#X msg 166 85 0 1000;
#X obj 219 115 \$1 30;
#X obj 219 86 / 127;
#X obj 166 179 *~ 20;
#X obj 200 153 r depth;
#X obj 85 5 inlet;
#X obj 85 300 outlet~;
#X connect 0 0 1 0;
#X connect 1 0 2 0;
#X connect 2 0 3 0;
#X connect 3 0 4 0;
#X connect 4 0 5 0;
#X connect 5 0 7 0;
#X connect 6 0 10 0;
#X connect 6 0 10 1;
#X connect 7 0 8 0;
#X connect 8 0 19 0;
#X connect 9 0 0 0;
#X connect 9 1 12 0;
#X connect 10 0 11 0;
#X connect 10 0 11 1;
#X connect 11 0 16 0;
#X connect 12 0 13 0;
#X connect 12 1 15 0;
#X connect 13 0 6 0;
#X connect 14 0 6 0;
#X connect 15 0 14 0;
#X connect 16 0 3 1;
#X connect 17 0 16 1;
#X connect 18 0 9 0;
