#N canvas 190 302 601 615 12;
#X obj 325 49 cnv 15 130 240 empty empty MIDI 20 12 0 14 -262130 -66577
0;
#X obj 472 300 cnv 15 100 140 empty empty Env 20 12 0 14 -204800 -66577
0;
#X obj 327 358 cnv 15 140 60 empty empty Oscillator 20 12 0 14 -261682
-66577 0;
#X obj 337 260 mtof;
#X obj 337 468 *~;
#X obj 337 500 dac~;
#X obj 337 79 notein;
#X obj 337 225 unpack 0 0;
#X obj 490 332 / 127;
#X obj 337 150 pack 0 0 0;
#X obj 337 190 route 1;
#X obj 337 115 poly 1 1;
#X msg 490 362 \$1 50;
#X obj 490 392 line~;
#N canvas 0 22 1243 938 additive1 0;
#X obj 57 289 osc~;
#X obj 59 735 catch~ out;
#X obj 55 139 s noteFreq;
#X obj 57 195 r noteFreq;
#X obj 57 256 * 1;
#X obj 75 226 r fcoef1;
#X obj 96 322 r acoef1;
#X obj 57 352 *~ 0.1;
#X obj 57 426 throw~ out;
#X obj 169 290 osc~;
#X obj 169 196 r noteFreq;
#X obj 169 353 *~ 0.1;
#X obj 283 289 osc~;
#X obj 283 195 r noteFreq;
#X obj 283 352 *~ 0.1;
#X obj 390 289 osc~;
#X obj 390 195 r noteFreq;
#X obj 390 352 *~ 0.1;
#X obj 504 288 osc~;
#X obj 504 194 r noteFreq;
#X obj 504 351 *~ 0.1;
#X obj 187 227 r fcoef2;
#X obj 301 226 r fcoef3;
#X obj 408 226 r fcoef4;
#X obj 522 225 r fcoef5;
#X obj 543 321 r acoef5;
#X obj 429 322 r acoef4;
#X obj 322 322 r acoef3;
#X obj 208 323 r acoef2;
#X obj 169 257 * 2;
#X obj 283 256 * 3;
#X obj 390 256 * 4;
#X obj 504 255 * 5;
#X obj 169 426 throw~ out;
#X obj 283 426 throw~ out;
#X obj 390 426 throw~ out;
#X obj 504 426 throw~ out;
#X obj 57 389 amp-mod 0.07;
#X obj 283 389 amp-mod 0.1;
#X obj 169 389 amp-mod 0.05;
#X obj 390 389 amp-mod 0.035;
#X obj 504 389 amp-mod 0.08;
#X obj 57 559 osc~;
#X obj 57 465 r noteFreq;
#X obj 57 622 *~ 0.1;
#X obj 57 696 throw~ out;
#X obj 169 560 osc~;
#X obj 169 466 r noteFreq;
#X obj 169 623 *~ 0.1;
#X obj 283 559 osc~;
#X obj 283 465 r noteFreq;
#X obj 283 622 *~ 0.1;
#X obj 390 559 osc~;
#X obj 390 465 r noteFreq;
#X obj 390 622 *~ 0.1;
#X obj 504 558 osc~;
#X obj 504 464 r noteFreq;
#X obj 504 621 *~ 0.1;
#X obj 169 696 throw~ out;
#X obj 283 696 throw~ out;
#X obj 390 696 throw~ out;
#X obj 504 696 throw~ out;
#X obj 75 496 r fcoef6;
#X obj 187 497 r fcoef7;
#X obj 301 496 r fcoef8;
#X obj 408 496 r fcoef9;
#X obj 522 495 r fcoef10;
#X obj 57 526 * 6;
#X obj 169 527 * 7;
#X obj 283 526 * 8;
#X obj 390 526 * 9;
#X obj 504 525 * 10;
#X obj 96 592 r acoef6;
#X obj 208 593 r acoef7;
#X obj 322 592 r acoef8;
#X obj 430 592 r acoef9;
#X obj 543 591 r acoef10;
#X obj 504 659 amp-mod 0.09;
#X obj 390 659 amp-mod 0.038;
#X obj 283 659 amp-mod 0.14;
#X obj 169 659 amp-mod 0.059;
#X obj 56 659 amp-mod 0.063;
#X msg 688 394 \; fcoef1 1 \; fcoef2 2.3 \; fcoef3 2.7 \; fcoef4 3.5
\; fcoef5 5.2 \; fcoef6 6 \; fcoef7 7 \; fcoef8 8 \; fcoef9 9 \; fcoef10
10 \; acoef1 0.1 \; acoef2 0.05 \; acoef3 0.02 \; acoef4 0.01 \; acoef5
0.005 \; acoef6 0.002 \; acoef7 0.001 \; acoef8 0.0005 \; acoef9 0.0002
\; acoef10 0.0001 \; noteFreq bang;
#X msg 958 394 \; fcoef1 1 \; fcoef2 1.77 \; fcoef3 3.2 \; fcoef4 5.3
\; fcoef5 8.32 \; fcoef6 6 \; fcoef7 7 \; fcoef8 8 \; fcoef9 9 \; fcoef10
10 \; acoef1 0.01 \; acoef2 0.05 \; acoef3 0.1 \; acoef4 0.5 \; acoef5
0.1 \; acoef6 0.002 \; acoef7 0.001 \; acoef8 0.0005 \; acoef9 0.0002
\; acoef10 0.0001 \; noteFreq bang;
#X msg 823 394 \; fcoef1 1 \; fcoef2 3 \; fcoef3 5 \; fcoef4 7 \; fcoef5
9 \; fcoef6 11 \; fcoef7 13 \; fcoef8 17 \; fcoef9 19 \; fcoef10 10
\; acoef1 0.05 \; acoef2 0.05 \; acoef3 0.1 \; acoef4 0.05 \; acoef5
0.01 \; acoef6 0.002 \; acoef7 0.001 \; acoef8 0.0005 \; acoef9 0.0002
\; acoef10 0.0001 \; noteFreq bang;
#X msg 823 33 \; fcoef1 1 \; fcoef2 2.001 \; fcoef3 2.999 \; fcoef4
4.002 \; fcoef5 4.997 \; fcoef6 6.004 \; fcoef7 6.996 \; fcoef8 8.01
\; fcoef9 8.99 \; fcoef10 10.02 \; acoef1 0.5 \; acoef2 0.2 \; acoef3
0.1 \; acoef4 0.05 \; acoef5 0.02 \; acoef6 0.01 \; acoef7 0.005 \;
acoef8 0.002 \; acoef9 0.001 \; acoef10 0.0005 \; noteFreq bang;
#X msg 688 33 \; fcoef1 1 \; fcoef2 2 \; fcoef3 3 \; fcoef4 4 \; fcoef5
5 \; fcoef6 6 \; fcoef7 7 \; fcoef8 8 \; fcoef9 9 \; fcoef10 10 \;
acoef1 0.5 \; acoef2 0.2 \; acoef3 0.1 \; acoef4 0.05 \; acoef5 0.02
\; acoef6 0.01 \; acoef7 0.005 \; acoef8 0.002 \; acoef9 0.001 \; acoef10
0.0005 \; noteFreq bang;
#X msg 959 32 \; fcoef1 1 \; fcoef2 2.01 \; fcoef3 2.99 \; fcoef4 4.02
\; fcoef5 4.97 \; fcoef6 6.04 \; fcoef7 6.96 \; fcoef8 8.1 \; fcoef9
8.9 \; fcoef10 10.2 \; acoef1 0.5 \; acoef2 0.2 \; acoef3 0.1 \; acoef4
0.05 \; acoef5 0.02 \; acoef6 0.01 \; acoef7 0.005 \; acoef8 0.002
\; acoef9 0.001 \; acoef10 0.0005 \; noteFreq bang;
#X obj 69 64 inlet;
#X obj 530 55 inlet;
#X obj 530 80 route 0 1 2 3 4 5;
#X obj 53 772 outlet~;
#X connect 0 0 7 0;
#X connect 1 0 91 0;
#X connect 3 0 4 0;
#X connect 4 0 0 0;
#X connect 5 0 4 1;
#X connect 6 0 7 1;
#X connect 7 0 37 0;
#X connect 9 0 11 0;
#X connect 10 0 29 0;
#X connect 11 0 39 0;
#X connect 12 0 14 0;
#X connect 13 0 30 0;
#X connect 14 0 38 0;
#X connect 15 0 17 0;
#X connect 16 0 31 0;
#X connect 17 0 40 0;
#X connect 18 0 20 0;
#X connect 19 0 32 0;
#X connect 20 0 41 0;
#X connect 21 0 29 1;
#X connect 22 0 30 1;
#X connect 23 0 31 1;
#X connect 24 0 32 1;
#X connect 25 0 20 1;
#X connect 26 0 17 1;
#X connect 27 0 14 1;
#X connect 28 0 11 1;
#X connect 29 0 9 0;
#X connect 30 0 12 0;
#X connect 31 0 15 0;
#X connect 32 0 18 0;
#X connect 37 0 8 0;
#X connect 38 0 34 0;
#X connect 39 0 33 0;
#X connect 40 0 35 0;
#X connect 41 0 36 0;
#X connect 42 0 44 0;
#X connect 43 0 67 0;
#X connect 44 0 81 0;
#X connect 46 0 48 0;
#X connect 47 0 68 0;
#X connect 48 0 80 0;
#X connect 49 0 51 0;
#X connect 50 0 69 0;
#X connect 51 0 79 0;
#X connect 52 0 54 0;
#X connect 53 0 70 0;
#X connect 54 0 78 0;
#X connect 55 0 57 0;
#X connect 56 0 71 0;
#X connect 57 0 77 0;
#X connect 62 0 67 1;
#X connect 63 0 68 1;
#X connect 64 0 69 1;
#X connect 65 0 70 1;
#X connect 66 0 71 1;
#X connect 67 0 42 0;
#X connect 68 0 46 0;
#X connect 69 0 49 0;
#X connect 70 0 52 0;
#X connect 71 0 55 0;
#X connect 72 0 44 1;
#X connect 73 0 48 1;
#X connect 74 0 51 1;
#X connect 75 0 54 1;
#X connect 76 0 57 1;
#X connect 77 0 61 0;
#X connect 78 0 60 0;
#X connect 79 0 59 0;
#X connect 80 0 58 0;
#X connect 81 0 45 0;
#X connect 88 0 2 0;
#X connect 89 0 90 0;
#X connect 90 0 86 0;
#X connect 90 1 85 0;
#X connect 90 2 87 0;
#X connect 90 3 82 0;
#X connect 90 4 84 0;
#X connect 90 5 83 0;
#X restore 337 388 pd additive1;
#X obj 111 122 hradio 15 1 0 6 empty empty empty 0 -8 0 10 -262144
-1 -1 5;
#X connect 3 0 14 0;
#X connect 4 0 5 0;
#X connect 4 0 5 1;
#X connect 6 0 11 0;
#X connect 6 1 11 1;
#X connect 7 0 3 0;
#X connect 7 1 8 0;
#X connect 8 0 12 0;
#X connect 9 0 10 0;
#X connect 10 0 7 0;
#X connect 11 0 9 0;
#X connect 11 1 9 1;
#X connect 11 2 9 2;
#X connect 12 0 13 0;
#X connect 13 0 4 1;
#X connect 14 0 4 0;
#X connect 15 0 14 1;
#X coords 0 -1 1 1 115 60 1 100 100;
