#N canvas 166 50 601 615 12;
#X obj 325 49 cnv 15 130 240 empty empty MIDI 20 12 0 14 -262130 -66577
0;
#X obj 472 300 cnv 15 100 140 empty empty Env 20 12 0 14 -204800 -66577
0;
#X obj 327 358 cnv 15 140 60 empty empty Oscillator 20 12 0 14 -261682
-66577 0;
#X obj 337 468 *~;
#X obj 337 500 dac~;
#X obj 337 79 notein;
#X obj 337 225 unpack 0 0;
#X obj 490 332 / 127;
#X obj 337 150 pack 0 0 0;
#X obj 337 190 route 1;
#X obj 337 115 poly 1 1;
#X msg 490 362 \$1 50;
#X obj 490 392 line~;
#N canvas 303 256 952 630 additive1 0;
#X obj 57 308 osc~;
#X obj 632 507 catch~ out;
#X obj 55 139 s noteFreq;
#X obj 57 185 r noteFreq;
#X obj 57 392 *~ 0.1;
#X obj 57 466 throw~ out;
#X obj 169 313 osc~;
#X obj 169 185 r noteFreq;
#X obj 169 393 *~ 0.1;
#X obj 283 313 osc~;
#X obj 283 185 r noteFreq;
#X obj 283 392 *~ 0.1;
#X obj 390 313 osc~;
#X obj 390 185 r noteFreq;
#X obj 390 392 *~ 0.1;
#X obj 504 313 osc~;
#X obj 504 185 r noteFreq;
#X obj 504 391 *~ 0.1;
#X obj 199 217 r fcoef2;
#X obj 313 217 r fcoef3;
#X obj 420 217 r fcoef4;
#X obj 534 217 r fcoef5;
#X obj 169 466 throw~ out;
#X obj 283 466 throw~ out;
#X obj 390 466 throw~ out;
#X obj 504 466 throw~ out;
#X obj 57 429 amp-mod 0.07;
#X obj 283 429 amp-mod 0.1;
#X obj 169 429 amp-mod 0.05;
#X obj 390 429 amp-mod 0.035;
#X obj 504 429 amp-mod 0.08;
#X obj 630 319 osc~;
#X obj 631 185 r noteFreq;
#X obj 630 394 *~ 0.1;
#X obj 630 468 throw~ out;
#X obj 661 217 r fcoef6;
#X obj 629 431 amp-mod 0.063;
#X obj 69 64 inlet;
#X obj 530 55 inlet;
#X obj 530 80 route 0 1 2 3 4 5;
#X obj 626 544 outlet~;
#X obj 169 249 + 2;
#X obj 283 249 + 4;
#X obj 390 249 + 6;
#X obj 504 249 + 8;
#X obj 631 249 + 10;
#X obj 57 276 mtof;
#X obj 169 281 mtof;
#X obj 390 281 mtof;
#X obj 283 281 mtof;
#X obj 630 286 mtof;
#X obj 504 281 mtof;
#X msg 774 149 \; fcoef2 2 \; fcoef3 4 \; fcoef4 6 \; fcoef5 8 \; fcoef6
10 \;;
#X msg 773 261 \; fcoef2 4 \; fcoef3 8 \; fcoef4 12 \; fcoef5 16 \;
fcoef6 20 \;;
#X msg 771 376 \; fcoef2 6 \; fcoef3 12 \; fcoef4 18 \; fcoef5 24 \;
fcoef6 30 \;;
#X connect 0 0 4 0;
#X connect 1 0 40 0;
#X connect 3 0 46 0;
#X connect 4 0 26 0;
#X connect 6 0 8 0;
#X connect 7 0 41 0;
#X connect 8 0 28 0;
#X connect 9 0 11 0;
#X connect 10 0 42 0;
#X connect 11 0 27 0;
#X connect 12 0 14 0;
#X connect 13 0 43 0;
#X connect 14 0 29 0;
#X connect 15 0 17 0;
#X connect 16 0 44 0;
#X connect 17 0 30 0;
#X connect 18 0 41 1;
#X connect 19 0 42 1;
#X connect 20 0 43 1;
#X connect 21 0 44 1;
#X connect 26 0 5 0;
#X connect 27 0 23 0;
#X connect 28 0 22 0;
#X connect 29 0 24 0;
#X connect 30 0 25 0;
#X connect 31 0 33 0;
#X connect 32 0 45 0;
#X connect 33 0 36 0;
#X connect 35 0 45 1;
#X connect 36 0 34 0;
#X connect 37 0 2 0;
#X connect 38 0 39 0;
#X connect 39 0 52 0;
#X connect 39 1 53 0;
#X connect 39 2 54 0;
#X connect 41 0 47 0;
#X connect 42 0 49 0;
#X connect 43 0 48 0;
#X connect 44 0 51 0;
#X connect 45 0 50 0;
#X connect 46 0 0 0;
#X connect 47 0 6 0;
#X connect 48 0 12 0;
#X connect 49 0 9 0;
#X connect 50 0 31 0;
#X connect 51 0 15 0;
#X restore 337 388 pd additive1;
#X obj 111 122 hradio 15 1 0 3 empty program Program 0 -8 0 10 -262144
-1 -1 0;
#X connect 3 0 4 0;
#X connect 3 0 4 1;
#X connect 5 0 10 0;
#X connect 5 1 10 1;
#X connect 6 0 13 0;
#X connect 6 1 7 0;
#X connect 7 0 11 0;
#X connect 8 0 9 0;
#X connect 9 0 6 0;
#X connect 10 0 8 0;
#X connect 10 1 8 1;
#X connect 10 2 8 2;
#X connect 11 0 12 0;
#X connect 12 0 3 1;
#X connect 13 0 3 0;
#X connect 14 0 13 1;
#X coords 0 -1 1 1 115 60 1 100 100;
