#N canvas 184 50 515 508 12;
#X obj 255 49 cnv 15 160 200 empty empty MIDI 20 12 0 14 -262130 -66577
0;
#X obj 267 79 notein;
#X obj 267 150 pack 0 0 0;
#X obj 111 122 hradio 15 1 0 3 prog program Program 0 -8 0 10 -262144
-1 -1 0;
#X obj 267 115 poly 6 1;
#X obj 267 195 route 1 2 3 4 5 6;
#X obj 267 440 dac~ 1 2 3 4 5 6;
#N canvas 0 22 423 364 synth 0;
#X obj 232 100 cnv 15 100 140 empty empty Env 20 12 0 14 -204800 -66577
0;
#X obj 67 158 cnv 15 140 60 empty empty Oscillator 20 12 0 14 -261682
-66577 0;
#X obj 77 268 *~;
#X obj 77 55 unpack 0 0;
#X obj 250 132 / 127;
#X msg 250 162 \$1 50;
#X obj 250 192 line~;
#N canvas 237 92 930 491 additive1 0;
#X obj 37 158 osc~;
#X obj 37 202 *~ 0.1;
#X obj 142 163 osc~;
#X obj 142 202 *~ 0.1;
#X obj 249 163 osc~;
#X obj 249 202 *~ 0.1;
#X obj 348 163 osc~;
#X obj 348 202 *~ 0.1;
#X obj 462 163 osc~;
#X obj 462 202 *~ 0.1;
#X obj 163 65 r fcoef2;
#X obj 270 65 r fcoef3;
#X obj 369 65 r fcoef4;
#X obj 483 65 r fcoef5;
#X obj 37 234 amp-mod 0.07;
#X obj 249 234 amp-mod 0.1;
#X obj 142 234 amp-mod 0.05;
#X obj 348 234 amp-mod 0.035;
#X obj 462 234 amp-mod 0.08;
#X obj 569 163 osc~;
#X obj 568 202 *~ 0.1;
#X obj 599 65 r fcoef6;
#X obj 568 234 amp-mod 0.063;
#X obj 37 65 inlet;
#X obj 721 65 inlet;
#X obj 568 266 outlet~;
#X obj 142 99 + 2;
#X obj 249 99 + 4;
#X obj 348 99 + 6;
#X obj 462 99 + 8;
#X obj 569 99 + 10;
#X obj 37 126 mtof;
#X obj 142 131 mtof;
#X obj 348 131 mtof;
#X obj 249 131 mtof;
#X obj 569 131 mtof;
#X obj 462 131 mtof;
#X msg 721 119 \; fcoef2 2 \; fcoef3 4 \; fcoef4 6 \; fcoef5 8 \; fcoef6
10 \;;
#X msg 749 225 \; fcoef2 4 \; fcoef3 8 \; fcoef4 12 \; fcoef5 16 \;
fcoef6 20 \;;
#X msg 779 332 \; fcoef2 6 \; fcoef3 12 \; fcoef4 18 \; fcoef5 24 \;
fcoef6 30 \;;
#X obj 721 90 route 0 1 2;
#X connect 0 0 1 0;
#X connect 1 0 14 0;
#X connect 2 0 3 0;
#X connect 3 0 16 0;
#X connect 4 0 5 0;
#X connect 5 0 15 0;
#X connect 6 0 7 0;
#X connect 7 0 17 0;
#X connect 8 0 9 0;
#X connect 9 0 18 0;
#X connect 10 0 26 1;
#X connect 11 0 27 1;
#X connect 12 0 28 1;
#X connect 13 0 29 1;
#X connect 14 0 25 0;
#X connect 15 0 25 0;
#X connect 16 0 25 0;
#X connect 17 0 25 0;
#X connect 18 0 25 0;
#X connect 19 0 20 0;
#X connect 20 0 22 0;
#X connect 21 0 30 1;
#X connect 22 0 25 0;
#X connect 23 0 31 0;
#X connect 23 0 26 0;
#X connect 23 0 27 0;
#X connect 23 0 28 0;
#X connect 23 0 29 0;
#X connect 23 0 30 0;
#X connect 24 0 40 0;
#X connect 26 0 32 0;
#X connect 27 0 34 0;
#X connect 28 0 33 0;
#X connect 29 0 36 0;
#X connect 30 0 35 0;
#X connect 31 0 0 0;
#X connect 32 0 2 0;
#X connect 33 0 6 0;
#X connect 34 0 4 0;
#X connect 35 0 19 0;
#X connect 36 0 8 0;
#X connect 40 0 37 0;
#X connect 40 1 38 0;
#X connect 40 2 39 0;
#X restore 77 188 pd additive1;
#X obj 170 126 r prog;
#X obj 77 16 inlet;
#X obj 77 306 outlet~;
#X connect 2 0 10 0;
#X connect 3 0 7 0;
#X connect 3 1 4 0;
#X connect 4 0 5 0;
#X connect 5 0 6 0;
#X connect 6 0 2 1;
#X connect 7 0 2 0;
#X connect 8 0 7 1;
#X connect 9 0 3 0;
#X restore 267 259 pd synth;
#N canvas 0 22 423 364 synth 0;
#X obj 232 100 cnv 15 100 140 empty empty Env 20 12 0 14 -204800 -66577
0;
#X obj 67 158 cnv 15 140 60 empty empty Oscillator 20 12 0 14 -261682
-66577 0;
#X obj 77 268 *~;
#X obj 77 55 unpack 0 0;
#X obj 250 132 / 127;
#X msg 250 162 \$1 50;
#X obj 250 192 line~;
#N canvas 237 92 930 491 additive1 0;
#X obj 37 158 osc~;
#X obj 37 202 *~ 0.1;
#X obj 142 163 osc~;
#X obj 142 202 *~ 0.1;
#X obj 249 163 osc~;
#X obj 249 202 *~ 0.1;
#X obj 348 163 osc~;
#X obj 348 202 *~ 0.1;
#X obj 462 163 osc~;
#X obj 462 202 *~ 0.1;
#X obj 163 65 r fcoef2;
#X obj 270 65 r fcoef3;
#X obj 369 65 r fcoef4;
#X obj 483 65 r fcoef5;
#X obj 37 234 amp-mod 0.07;
#X obj 249 234 amp-mod 0.1;
#X obj 142 234 amp-mod 0.05;
#X obj 348 234 amp-mod 0.035;
#X obj 462 234 amp-mod 0.08;
#X obj 569 163 osc~;
#X obj 568 202 *~ 0.1;
#X obj 599 65 r fcoef6;
#X obj 568 234 amp-mod 0.063;
#X obj 37 65 inlet;
#X obj 721 65 inlet;
#X obj 568 266 outlet~;
#X obj 142 99 + 2;
#X obj 249 99 + 4;
#X obj 348 99 + 6;
#X obj 462 99 + 8;
#X obj 569 99 + 10;
#X obj 37 126 mtof;
#X obj 142 131 mtof;
#X obj 348 131 mtof;
#X obj 249 131 mtof;
#X obj 569 131 mtof;
#X obj 462 131 mtof;
#X msg 721 119 \; fcoef2 2 \; fcoef3 4 \; fcoef4 6 \; fcoef5 8 \; fcoef6
10 \;;
#X msg 749 225 \; fcoef2 4 \; fcoef3 8 \; fcoef4 12 \; fcoef5 16 \;
fcoef6 20 \;;
#X msg 779 332 \; fcoef2 6 \; fcoef3 12 \; fcoef4 18 \; fcoef5 24 \;
fcoef6 30 \;;
#X obj 721 90 route 0 1 2;
#X connect 0 0 1 0;
#X connect 1 0 14 0;
#X connect 2 0 3 0;
#X connect 3 0 16 0;
#X connect 4 0 5 0;
#X connect 5 0 15 0;
#X connect 6 0 7 0;
#X connect 7 0 17 0;
#X connect 8 0 9 0;
#X connect 9 0 18 0;
#X connect 10 0 26 1;
#X connect 11 0 27 1;
#X connect 12 0 28 1;
#X connect 13 0 29 1;
#X connect 14 0 25 0;
#X connect 15 0 25 0;
#X connect 16 0 25 0;
#X connect 17 0 25 0;
#X connect 18 0 25 0;
#X connect 19 0 20 0;
#X connect 20 0 22 0;
#X connect 21 0 30 1;
#X connect 22 0 25 0;
#X connect 23 0 31 0;
#X connect 23 0 26 0;
#X connect 23 0 27 0;
#X connect 23 0 28 0;
#X connect 23 0 29 0;
#X connect 23 0 30 0;
#X connect 24 0 40 0;
#X connect 26 0 32 0;
#X connect 27 0 34 0;
#X connect 28 0 33 0;
#X connect 29 0 36 0;
#X connect 30 0 35 0;
#X connect 31 0 0 0;
#X connect 32 0 2 0;
#X connect 33 0 6 0;
#X connect 34 0 4 0;
#X connect 35 0 19 0;
#X connect 36 0 8 0;
#X connect 40 0 37 0;
#X connect 40 1 38 0;
#X connect 40 2 39 0;
#X restore 77 188 pd additive1;
#X obj 170 126 r prog;
#X obj 77 16 inlet;
#X obj 77 306 outlet~;
#X connect 2 0 10 0;
#X connect 3 0 7 0;
#X connect 3 1 4 0;
#X connect 4 0 5 0;
#X connect 5 0 6 0;
#X connect 6 0 2 1;
#X connect 7 0 2 0;
#X connect 8 0 7 1;
#X connect 9 0 3 0;
#X restore 292 289 pd synth;
#N canvas 0 22 423 364 synth 0;
#X obj 232 100 cnv 15 100 140 empty empty Env 20 12 0 14 -204800 -66577
0;
#X obj 67 158 cnv 15 140 60 empty empty Oscillator 20 12 0 14 -261682
-66577 0;
#X obj 77 268 *~;
#X obj 77 55 unpack 0 0;
#X obj 250 132 / 127;
#X msg 250 162 \$1 50;
#X obj 250 192 line~;
#N canvas 237 92 930 491 additive1 0;
#X obj 37 158 osc~;
#X obj 37 202 *~ 0.1;
#X obj 142 163 osc~;
#X obj 142 202 *~ 0.1;
#X obj 249 163 osc~;
#X obj 249 202 *~ 0.1;
#X obj 348 163 osc~;
#X obj 348 202 *~ 0.1;
#X obj 462 163 osc~;
#X obj 462 202 *~ 0.1;
#X obj 163 65 r fcoef2;
#X obj 270 65 r fcoef3;
#X obj 369 65 r fcoef4;
#X obj 483 65 r fcoef5;
#X obj 37 234 amp-mod 0.07;
#X obj 249 234 amp-mod 0.1;
#X obj 142 234 amp-mod 0.05;
#X obj 348 234 amp-mod 0.035;
#X obj 462 234 amp-mod 0.08;
#X obj 569 163 osc~;
#X obj 568 202 *~ 0.1;
#X obj 599 65 r fcoef6;
#X obj 568 234 amp-mod 0.063;
#X obj 37 65 inlet;
#X obj 721 65 inlet;
#X obj 568 266 outlet~;
#X obj 142 99 + 2;
#X obj 249 99 + 4;
#X obj 348 99 + 6;
#X obj 462 99 + 8;
#X obj 569 99 + 10;
#X obj 37 126 mtof;
#X obj 142 131 mtof;
#X obj 348 131 mtof;
#X obj 249 131 mtof;
#X obj 569 131 mtof;
#X obj 462 131 mtof;
#X msg 721 119 \; fcoef2 2 \; fcoef3 4 \; fcoef4 6 \; fcoef5 8 \; fcoef6
10 \;;
#X msg 749 225 \; fcoef2 4 \; fcoef3 8 \; fcoef4 12 \; fcoef5 16 \;
fcoef6 20 \;;
#X msg 779 332 \; fcoef2 6 \; fcoef3 12 \; fcoef4 18 \; fcoef5 24 \;
fcoef6 30 \;;
#X obj 721 90 route 0 1 2;
#X connect 0 0 1 0;
#X connect 1 0 14 0;
#X connect 2 0 3 0;
#X connect 3 0 16 0;
#X connect 4 0 5 0;
#X connect 5 0 15 0;
#X connect 6 0 7 0;
#X connect 7 0 17 0;
#X connect 8 0 9 0;
#X connect 9 0 18 0;
#X connect 10 0 26 1;
#X connect 11 0 27 1;
#X connect 12 0 28 1;
#X connect 13 0 29 1;
#X connect 14 0 25 0;
#X connect 15 0 25 0;
#X connect 16 0 25 0;
#X connect 17 0 25 0;
#X connect 18 0 25 0;
#X connect 19 0 20 0;
#X connect 20 0 22 0;
#X connect 21 0 30 1;
#X connect 22 0 25 0;
#X connect 23 0 31 0;
#X connect 23 0 26 0;
#X connect 23 0 27 0;
#X connect 23 0 28 0;
#X connect 23 0 29 0;
#X connect 23 0 30 0;
#X connect 24 0 40 0;
#X connect 26 0 32 0;
#X connect 27 0 34 0;
#X connect 28 0 33 0;
#X connect 29 0 36 0;
#X connect 30 0 35 0;
#X connect 31 0 0 0;
#X connect 32 0 2 0;
#X connect 33 0 6 0;
#X connect 34 0 4 0;
#X connect 35 0 19 0;
#X connect 36 0 8 0;
#X connect 40 0 37 0;
#X connect 40 1 38 0;
#X connect 40 2 39 0;
#X restore 77 188 pd additive1;
#X obj 170 126 r prog;
#X obj 77 16 inlet;
#X obj 77 306 outlet~;
#X connect 2 0 10 0;
#X connect 3 0 7 0;
#X connect 3 1 4 0;
#X connect 4 0 5 0;
#X connect 5 0 6 0;
#X connect 6 0 2 1;
#X connect 7 0 2 0;
#X connect 8 0 7 1;
#X connect 9 0 3 0;
#X restore 317 319 pd synth;
#N canvas 0 22 423 364 synth 0;
#X obj 232 100 cnv 15 100 140 empty empty Env 20 12 0 14 -204800 -66577
0;
#X obj 67 158 cnv 15 140 60 empty empty Oscillator 20 12 0 14 -261682
-66577 0;
#X obj 77 268 *~;
#X obj 77 55 unpack 0 0;
#X obj 250 132 / 127;
#X msg 250 162 \$1 50;
#X obj 250 192 line~;
#N canvas 237 92 930 491 additive1 0;
#X obj 37 158 osc~;
#X obj 37 202 *~ 0.1;
#X obj 142 163 osc~;
#X obj 142 202 *~ 0.1;
#X obj 249 163 osc~;
#X obj 249 202 *~ 0.1;
#X obj 348 163 osc~;
#X obj 348 202 *~ 0.1;
#X obj 462 163 osc~;
#X obj 462 202 *~ 0.1;
#X obj 163 65 r fcoef2;
#X obj 270 65 r fcoef3;
#X obj 369 65 r fcoef4;
#X obj 483 65 r fcoef5;
#X obj 37 234 amp-mod 0.07;
#X obj 249 234 amp-mod 0.1;
#X obj 142 234 amp-mod 0.05;
#X obj 348 234 amp-mod 0.035;
#X obj 462 234 amp-mod 0.08;
#X obj 569 163 osc~;
#X obj 568 202 *~ 0.1;
#X obj 599 65 r fcoef6;
#X obj 568 234 amp-mod 0.063;
#X obj 37 65 inlet;
#X obj 721 65 inlet;
#X obj 568 266 outlet~;
#X obj 142 99 + 2;
#X obj 249 99 + 4;
#X obj 348 99 + 6;
#X obj 462 99 + 8;
#X obj 569 99 + 10;
#X obj 37 126 mtof;
#X obj 142 131 mtof;
#X obj 348 131 mtof;
#X obj 249 131 mtof;
#X obj 569 131 mtof;
#X obj 462 131 mtof;
#X msg 721 119 \; fcoef2 2 \; fcoef3 4 \; fcoef4 6 \; fcoef5 8 \; fcoef6
10 \;;
#X msg 749 225 \; fcoef2 4 \; fcoef3 8 \; fcoef4 12 \; fcoef5 16 \;
fcoef6 20 \;;
#X msg 779 332 \; fcoef2 6 \; fcoef3 12 \; fcoef4 18 \; fcoef5 24 \;
fcoef6 30 \;;
#X obj 721 90 route 0 1 2;
#X connect 0 0 1 0;
#X connect 1 0 14 0;
#X connect 2 0 3 0;
#X connect 3 0 16 0;
#X connect 4 0 5 0;
#X connect 5 0 15 0;
#X connect 6 0 7 0;
#X connect 7 0 17 0;
#X connect 8 0 9 0;
#X connect 9 0 18 0;
#X connect 10 0 26 1;
#X connect 11 0 27 1;
#X connect 12 0 28 1;
#X connect 13 0 29 1;
#X connect 14 0 25 0;
#X connect 15 0 25 0;
#X connect 16 0 25 0;
#X connect 17 0 25 0;
#X connect 18 0 25 0;
#X connect 19 0 20 0;
#X connect 20 0 22 0;
#X connect 21 0 30 1;
#X connect 22 0 25 0;
#X connect 23 0 31 0;
#X connect 23 0 26 0;
#X connect 23 0 27 0;
#X connect 23 0 28 0;
#X connect 23 0 29 0;
#X connect 23 0 30 0;
#X connect 24 0 40 0;
#X connect 26 0 32 0;
#X connect 27 0 34 0;
#X connect 28 0 33 0;
#X connect 29 0 36 0;
#X connect 30 0 35 0;
#X connect 31 0 0 0;
#X connect 32 0 2 0;
#X connect 33 0 6 0;
#X connect 34 0 4 0;
#X connect 35 0 19 0;
#X connect 36 0 8 0;
#X connect 40 0 37 0;
#X connect 40 1 38 0;
#X connect 40 2 39 0;
#X restore 77 188 pd additive1;
#X obj 170 126 r prog;
#X obj 77 16 inlet;
#X obj 77 306 outlet~;
#X connect 2 0 10 0;
#X connect 3 0 7 0;
#X connect 3 1 4 0;
#X connect 4 0 5 0;
#X connect 5 0 6 0;
#X connect 6 0 2 1;
#X connect 7 0 2 0;
#X connect 8 0 7 1;
#X connect 9 0 3 0;
#X restore 342 349 pd synth;
#N canvas 0 22 423 364 synth 0;
#X obj 232 100 cnv 15 100 140 empty empty Env 20 12 0 14 -204800 -66577
0;
#X obj 67 158 cnv 15 140 60 empty empty Oscillator 20 12 0 14 -261682
-66577 0;
#X obj 77 268 *~;
#X obj 77 55 unpack 0 0;
#X obj 250 132 / 127;
#X msg 250 162 \$1 50;
#X obj 250 192 line~;
#N canvas 237 92 930 491 additive1 0;
#X obj 37 158 osc~;
#X obj 37 202 *~ 0.1;
#X obj 142 163 osc~;
#X obj 142 202 *~ 0.1;
#X obj 249 163 osc~;
#X obj 249 202 *~ 0.1;
#X obj 348 163 osc~;
#X obj 348 202 *~ 0.1;
#X obj 462 163 osc~;
#X obj 462 202 *~ 0.1;
#X obj 163 65 r fcoef2;
#X obj 270 65 r fcoef3;
#X obj 369 65 r fcoef4;
#X obj 483 65 r fcoef5;
#X obj 37 234 amp-mod 0.07;
#X obj 249 234 amp-mod 0.1;
#X obj 142 234 amp-mod 0.05;
#X obj 348 234 amp-mod 0.035;
#X obj 462 234 amp-mod 0.08;
#X obj 569 163 osc~;
#X obj 568 202 *~ 0.1;
#X obj 599 65 r fcoef6;
#X obj 568 234 amp-mod 0.063;
#X obj 37 65 inlet;
#X obj 721 65 inlet;
#X obj 568 266 outlet~;
#X obj 142 99 + 2;
#X obj 249 99 + 4;
#X obj 348 99 + 6;
#X obj 462 99 + 8;
#X obj 569 99 + 10;
#X obj 37 126 mtof;
#X obj 142 131 mtof;
#X obj 348 131 mtof;
#X obj 249 131 mtof;
#X obj 569 131 mtof;
#X obj 462 131 mtof;
#X msg 721 119 \; fcoef2 2 \; fcoef3 4 \; fcoef4 6 \; fcoef5 8 \; fcoef6
10 \;;
#X msg 749 225 \; fcoef2 4 \; fcoef3 8 \; fcoef4 12 \; fcoef5 16 \;
fcoef6 20 \;;
#X msg 779 332 \; fcoef2 6 \; fcoef3 12 \; fcoef4 18 \; fcoef5 24 \;
fcoef6 30 \;;
#X obj 721 90 route 0 1 2;
#X connect 0 0 1 0;
#X connect 1 0 14 0;
#X connect 2 0 3 0;
#X connect 3 0 16 0;
#X connect 4 0 5 0;
#X connect 5 0 15 0;
#X connect 6 0 7 0;
#X connect 7 0 17 0;
#X connect 8 0 9 0;
#X connect 9 0 18 0;
#X connect 10 0 26 1;
#X connect 11 0 27 1;
#X connect 12 0 28 1;
#X connect 13 0 29 1;
#X connect 14 0 25 0;
#X connect 15 0 25 0;
#X connect 16 0 25 0;
#X connect 17 0 25 0;
#X connect 18 0 25 0;
#X connect 19 0 20 0;
#X connect 20 0 22 0;
#X connect 21 0 30 1;
#X connect 22 0 25 0;
#X connect 23 0 31 0;
#X connect 23 0 26 0;
#X connect 23 0 27 0;
#X connect 23 0 28 0;
#X connect 23 0 29 0;
#X connect 23 0 30 0;
#X connect 24 0 40 0;
#X connect 26 0 32 0;
#X connect 27 0 34 0;
#X connect 28 0 33 0;
#X connect 29 0 36 0;
#X connect 30 0 35 0;
#X connect 31 0 0 0;
#X connect 32 0 2 0;
#X connect 33 0 6 0;
#X connect 34 0 4 0;
#X connect 35 0 19 0;
#X connect 36 0 8 0;
#X connect 40 0 37 0;
#X connect 40 1 38 0;
#X connect 40 2 39 0;
#X restore 77 188 pd additive1;
#X obj 170 126 r prog;
#X obj 77 16 inlet;
#X obj 77 306 outlet~;
#X connect 2 0 10 0;
#X connect 3 0 7 0;
#X connect 3 1 4 0;
#X connect 4 0 5 0;
#X connect 5 0 6 0;
#X connect 6 0 2 1;
#X connect 7 0 2 0;
#X connect 8 0 7 1;
#X connect 9 0 3 0;
#X restore 367 379 pd synth;
#N canvas 0 22 423 364 synth 0;
#X obj 232 100 cnv 15 100 140 empty empty Env 20 12 0 14 -204800 -66577
0;
#X obj 67 158 cnv 15 140 60 empty empty Oscillator 20 12 0 14 -261682
-66577 0;
#X obj 77 268 *~;
#X obj 77 55 unpack 0 0;
#X obj 250 132 / 127;
#X msg 250 162 \$1 50;
#X obj 250 192 line~;
#N canvas 237 92 930 491 additive1 0;
#X obj 37 158 osc~;
#X obj 37 202 *~ 0.1;
#X obj 142 163 osc~;
#X obj 142 202 *~ 0.1;
#X obj 249 163 osc~;
#X obj 249 202 *~ 0.1;
#X obj 348 163 osc~;
#X obj 348 202 *~ 0.1;
#X obj 462 163 osc~;
#X obj 462 202 *~ 0.1;
#X obj 163 65 r fcoef2;
#X obj 270 65 r fcoef3;
#X obj 369 65 r fcoef4;
#X obj 483 65 r fcoef5;
#X obj 37 234 amp-mod 0.07;
#X obj 249 234 amp-mod 0.1;
#X obj 142 234 amp-mod 0.05;
#X obj 348 234 amp-mod 0.035;
#X obj 462 234 amp-mod 0.08;
#X obj 569 163 osc~;
#X obj 568 202 *~ 0.1;
#X obj 599 65 r fcoef6;
#X obj 568 234 amp-mod 0.063;
#X obj 37 65 inlet;
#X obj 721 65 inlet;
#X obj 568 266 outlet~;
#X obj 142 99 + 2;
#X obj 249 99 + 4;
#X obj 348 99 + 6;
#X obj 462 99 + 8;
#X obj 569 99 + 10;
#X obj 37 126 mtof;
#X obj 142 131 mtof;
#X obj 348 131 mtof;
#X obj 249 131 mtof;
#X obj 569 131 mtof;
#X obj 462 131 mtof;
#X msg 721 119 \; fcoef2 2 \; fcoef3 4 \; fcoef4 6 \; fcoef5 8 \; fcoef6
10 \;;
#X msg 749 225 \; fcoef2 4 \; fcoef3 8 \; fcoef4 12 \; fcoef5 16 \;
fcoef6 20 \;;
#X msg 779 332 \; fcoef2 6 \; fcoef3 12 \; fcoef4 18 \; fcoef5 24 \;
fcoef6 30 \;;
#X obj 721 90 route 0 1 2;
#X connect 0 0 1 0;
#X connect 1 0 14 0;
#X connect 2 0 3 0;
#X connect 3 0 16 0;
#X connect 4 0 5 0;
#X connect 5 0 15 0;
#X connect 6 0 7 0;
#X connect 7 0 17 0;
#X connect 8 0 9 0;
#X connect 9 0 18 0;
#X connect 10 0 26 1;
#X connect 11 0 27 1;
#X connect 12 0 28 1;
#X connect 13 0 29 1;
#X connect 14 0 25 0;
#X connect 15 0 25 0;
#X connect 16 0 25 0;
#X connect 17 0 25 0;
#X connect 18 0 25 0;
#X connect 19 0 20 0;
#X connect 20 0 22 0;
#X connect 21 0 30 1;
#X connect 22 0 25 0;
#X connect 23 0 31 0;
#X connect 23 0 26 0;
#X connect 23 0 27 0;
#X connect 23 0 28 0;
#X connect 23 0 29 0;
#X connect 23 0 30 0;
#X connect 24 0 40 0;
#X connect 26 0 32 0;
#X connect 27 0 34 0;
#X connect 28 0 33 0;
#X connect 29 0 36 0;
#X connect 30 0 35 0;
#X connect 31 0 0 0;
#X connect 32 0 2 0;
#X connect 33 0 6 0;
#X connect 34 0 4 0;
#X connect 35 0 19 0;
#X connect 36 0 8 0;
#X connect 40 0 37 0;
#X connect 40 1 38 0;
#X connect 40 2 39 0;
#X restore 77 188 pd additive1;
#X obj 170 126 r prog;
#X obj 77 16 inlet;
#X obj 77 306 outlet~;
#X connect 2 0 10 0;
#X connect 3 0 7 0;
#X connect 3 1 4 0;
#X connect 4 0 5 0;
#X connect 5 0 6 0;
#X connect 6 0 2 1;
#X connect 7 0 2 0;
#X connect 8 0 7 1;
#X connect 9 0 3 0;
#X restore 392 409 pd synth;
#X connect 1 0 4 0;
#X connect 1 1 4 1;
#X connect 2 0 5 0;
#X connect 4 0 2 0;
#X connect 4 1 2 1;
#X connect 4 2 2 2;
#X connect 5 0 7 0;
#X connect 5 1 8 0;
#X connect 5 2 9 0;
#X connect 5 3 10 0;
#X connect 5 4 11 0;
#X connect 5 5 12 0;
#X connect 7 0 6 0;
#X connect 8 0 6 1;
#X connect 9 0 6 2;
#X connect 10 0 6 3;
#X connect 11 0 6 4;
#X connect 12 0 6 5;
#X coords 0 -1 1 1 115 60 1 100 100;
