#N canvas 0 23 1280 751 10;
#X declare -path patch_editor_abs;
#X obj 27 735 declare -path patch_editor_abs;
#X text 39 719 DO NOT DELETE THESE OBJECTS:;
#X obj 452 16 clock 1;
#X obj 539 237 trigger-seq 1;
#X obj 271 238 trigger-seq 2;
#X obj 278 366 kick 1;
#X obj 539 375 snare 1;
#X obj 809 297 granular-delay 1;
#X obj 830 36 sinebank 1;
#X obj 245 494 wavefold 1;
#X obj 655 19 manual-triggers 1;
#X obj 60 230 gate-seq 1;
#X obj 41 37 clock-divider-even 1;
#X obj 243 32 clock-divider-odd 1;
#X obj 77 138 4to1-switch 1;
#X obj 25 548 looper 1;
#X obj 30 455 probability 1;
#X obj 1334 146 mega-sequencer 1;
#X obj 1333 396 bwl-osc 1;
#X obj 1146 411 vca 1;
#X obj 1137 535 analog-filter 1;
#X obj 1116 255 adsr 1;
#X obj 1341 547 stereo-delay 1;
#X obj 820 499 maestro4 2;
#X obj 277 138 4to1-switch 2;
#X obj 962 31 gate-seq 2;
#X obj 1160 27 gate-seq 3;
#X obj 550 123 probability 2;
#X obj 541 495 maestro4 1;
#X obj 313 593 audio-recorder;
#X connect 2 0 13 0;
#X connect 2 0 12 0;
#X connect 2 0 24 0;
#X connect 2 0 27 0;
#X connect 3 0 6 0;
#X connect 4 0 5 0;
#X connect 5 0 9 0;
#X connect 6 0 7 0;
#X connect 6 0 15 1;
#X connect 6 0 28 2;
#X connect 7 0 28 4;
#X connect 7 1 28 6;
#X connect 8 0 7 1;
#X connect 8 1 7 2;
#X connect 8 2 6 3;
#X connect 8 3 15 2;
#X connect 9 0 15 0;
#X connect 9 0 28 0;
#X connect 10 1 11 2;
#X connect 10 1 25 2;
#X connect 10 2 4 2;
#X connect 10 2 3 2;
#X connect 11 0 5 1;
#X connect 12 0 24 1;
#X connect 12 0 25 0;
#X connect 12 1 14 1;
#X connect 12 2 16 0;
#X connect 13 0 14 0;
#X connect 13 1 14 2;
#X connect 13 2 14 3;
#X connect 14 0 11 0;
#X connect 15 0 23 0;
#X connect 15 1 23 2;
#X connect 16 0 15 3;
#X connect 17 0 18 0;
#X connect 18 0 19 0;
#X connect 19 0 20 0;
#X connect 20 0 22 0;
#X connect 21 0 19 1;
#X connect 21 0 20 1;
#X connect 22 0 23 4;
#X connect 22 1 23 6;
#X connect 23 4 29 0;
#X connect 23 5 29 1;
#X connect 24 0 4 0;
#X connect 24 0 3 0;
#X connect 25 0 6 1;
#X connect 26 0 21 0;
#X connect 27 0 17 0;
#X connect 27 0 24 3;
#X connect 27 0 26 0;
#X connect 28 4 29 0;
#X connect 28 5 29 1;
